<?xml version="1.0" encoding="UTF-8"?>
<!DOCTYPE svg PUBLIC "-//W3C//DTD SVG 1.1//EN" "http://www.w3.org/Graphics/SVG/1.1/DTD/svg11.dtd">
<!-- Creator: CorelDRAW 2017 -->
<?xml-stylesheet href="logo2.css" type="text/css"?>
<svg xmlns="http://www.w3.org/2000/svg" xml:space="preserve" width="500px" height="433px" version="1.1" style="shape-rendering:geometricPrecision; text-rendering:geometricPrecision; image-rendering:optimizeQuality; fill-rule:evenodd; clip-rule:evenodd"
viewBox="0 0 5070.5 4391.9"
 xmlns:xlink="http://www.w3.org/1999/xlink">
 <g id="Capa_x0020_1">
  <metadata id="CorelCorpID_0Corel-Layer"/>
  <path class="fil0" d="M0 4391.9l1210 -2097 626.6 362.4 139.6 -241.3 -626.9 -362.6 1184.8 -2053.4 1198.5 2074.6 -626.7 362.1 139.4 241.4 626.8 -362.1 1198.4 2074.6 -2402.7 0.6 0 -719.1 -278.8 0 0 719.2 -2389 0.6zm2098.5 -1212.3c-139.2,-241 -56.7,-549.3 184.3,-688.5 241,-139.3 549.3,-56.8 688.5,184.3 139.3,241 56.7,549.3 -184.3,688.5 -241,139.2 -549.3,56.7 -688.5,-184.3z"/>
 </g>
</svg>
